<svg version="1.1" id="filter_svg_icon" xmlns="http://www.w3.org/2000/svg" xmlns:xlink="http://www.w3.org/1999/xlink" x="0px" y="0px"
	 width="50px" height="50px" viewBox="0 0 50 50" enable-background="new 0 0 50 50" xml:space="preserve">
	<rect x="4.306" y="7.581"  width="36.34" height="3.765"/>
	<rect x="4.306" y="39.214"  width="36.34" height="3.765"/>
	<rect x="4.306" y="23.396"  width="36.34" height="3.768"/>
	<g id="first_ball">
		<path d="M18.804,16.242c-3.765,0-6.778-3.011-6.778-6.778c0-3.765,3.014-6.778,6.778-6.778
			c3.767,0,6.778,3.013,6.778,6.778C25.582,13.23,22.571,16.242,18.804,16.242z M18.804,6.45c-1.694,0-3.013,1.319-3.013,3.013
			c0,1.694,1.319,3.013,3.013,3.013s3.013-1.319,3.013-3.013C21.817,7.77,20.498,6.45,18.804,6.45z"/>
		<path fill="#144678" d="M18.804,6.45c-1.693,0-3.013,1.319-3.013,3.014s1.319,3.013,3.013,3.013c1.694,0,3.014-1.318,3.014-3.013
			S20.498,6.45,18.804,6.45z"/>
	</g>
	<g id="second_ball">
		<path  d="M40.834,32.062c-3.765,0-6.78-3.016-6.78-6.783c0-3.765,3.016-6.778,6.78-6.778
			c3.766,0,6.78,3.013,6.78,6.778C47.614,29.046,44.411,32.062,40.834,32.062z M40.834,22.268c-1.696,0-3.011,1.317-3.011,3.011
			c0,1.697,1.314,3.013,3.011,3.013s3.012-1.316,3.012-3.013C43.846,23.585,42.338,22.268,40.834,22.268z"/>
		<path fill="#144678" d="M40.833,22.268c-1.693,0-3.013,1.319-3.013,3.014c0,1.695,1.319,3.013,3.013,3.013
			c1.694,0,3.014-1.318,3.014-3.013C43.847,23.587,42.527,22.268,40.833,22.268z"/>
	</g>
	<g id="third_ball">
		<path  d="M23.888,47.875c-3.765,0-6.778-3.016-6.778-6.776c0-3.77,3.013-6.78,6.778-6.78
			c3.767,0,6.778,3.011,6.778,6.78C30.666,44.859,27.655,47.875,23.888,47.875z M23.888,38.083c-1.694,0-3.013,1.315-3.013,3.016
			c0,1.691,1.319,3.007,3.013,3.007s3.013-1.315,3.013-3.007C26.901,39.398,25.582,38.083,23.888,38.083z"/>
		<path fill="#144678" d="M23.888,38.084c-1.693,0-3.013,1.318-3.013,3.014c0,1.694,1.319,3.013,3.013,3.013
			c1.694,0,3.014-1.318,3.014-3.013C26.901,39.402,25.582,38.084,23.888,38.084z"/>
	</g>
</svg>