<svg version="1.1" id="mailbox_icon_svg" xmlns="http://www.w3.org/2000/svg" xmlns:xlink="http://www.w3.org/1999/xlink" x="0px" y="0px"
	 width="150px" height="150px" viewBox="0 0 150 150" enable-background="new 0 0 150 150" xml:space="preserve">
<path fill="white" d="M115.489,24.14h-15.75l0.279-2.418l14.782-2.33l1.791-15.438L97.388,0l-2.803,24.141H54.13h-1.632h-0.532
	v0.028c-13.444,0.286-24.297,11.292-24.297,24.802v45.302c-0.158,0.232-0.313,0.457-0.473,0.689
	c-10.711,15.549-24.043,34.902-19.238,46.289c1.821,4.314,5.928,7.045,12.208,8.115l1.498,0.256c1.466,0.25,2.954,0.377,4.417,0.377
	c21.129,0,36.745-25.863,48.149-44.748c1.146-1.904,2.255-3.734,3.327-5.469h1.403h4.419v49.533h5.112c0-16.51,0-33.023,0-49.533
	h11.197c0,16.51,0,33.023,0,49.533h5.114V99.781h38.249V51.704h0.002C143.053,36.506,130.688,24.14,115.489,24.14z M101.827,6.133
	l9.144,1.881l-0.802,6.925l-9.539,1.504L101.827,6.133z M98.082,59.032c0,2.739-2.229,4.967-4.968,4.967
	c-2.741,0-4.967-2.228-4.967-4.967c0.002-2.738,2.229-4.966,4.967-4.966S98.082,56.292,98.082,59.032z M69.85,102.607
	c-10.773,17.842-25.528,42.277-43.77,42.277c-1.177,0-2.373-0.102-3.556-0.305l-1.498-0.258c-4.51-0.768-7.242-2.422-8.354-5.059
	c-3.546-8.402,8.107-25.939,17.416-39.482h21.878h19.594C71,100.703,70.429,101.646,69.85,102.607z M73.841,94.666H32.782V48.97
	c0-10.872,8.843-19.714,19.715-19.714h1.632c8.823,0,16.309,5.826,18.815,13.833L37.782,48.59l6.849,43.779l29.209-4.57V94.666z
	 M44.129,56.075l16.77,11.117L48.326,82.898L44.129,56.075z M73.843,82.623l-21.424,3.352l12.724-15.898l5.476,3.557l1.987,1.319
	l1.238-1.548V82.623z M73.843,65.212l-2.312,2.891L47.595,52.234l26.206-4.1c0.01,0.278,0.042,0.553,0.042,0.835V65.212z
	 M137.94,94.666h-0.002h-33.137h-2.555H85.935h-2.556h-4.418v-7.668V48.97c0-0.781-0.046-1.561-0.119-2.337
	c-0.027-0.281-0.071-0.558-0.106-0.835c-0.046-0.349-0.076-0.701-0.135-1.044l-0.429-2.479l-0.149,0.023
	c-1.472-5.259-4.628-9.807-8.858-13.04h24.833l-2.301,19.807c-4.887,0.694-8.661,4.894-8.661,9.971
	c0,5.559,4.522,10.082,10.083,10.082c5.559,0,10.08-4.522,10.08-10.082c0-4.267-2.667-7.913-6.418-9.381l2.366-20.396h16.345
	c12.379,0,22.449,10.071,22.449,22.449V94.666z"/>
</svg>
